<svg xmlns="http://www.w3.org/2000/svg" width="600" height="212"><rect x="0" y="0" width="600" height="212" fill="#000" /><text x="300" y="20" font-family="monospace" font-size="16" fill="#fff" text-anchor="middle">Top Languages</text><rect x="10" y="30" width="304.5" height="12" fill="#4F8EF7" /><rect x="314.5" y="30" width="78.30000000000001" height="12" fill="#F7B32F" /><rect x="392.8" y="30" width="65.54" height="12" fill="#F75F4F" /><rect x="458.34000000000003" y="30" width="31.320000000000004" height="12" fill="#6FCF97" /><rect x="489.66" y="30" width="28.42" height="12" fill="#9B51E0" /><rect x="518.08" y="30" width="22.04" height="12" fill="#834d1eff" /><rect x="540.12" y="30" width="15.080000000000002" height="12" fill="#1e4a7eff" /><rect x="555.2" y="30" width="14.5" height="12" fill="#f256d0ff" /><rect x="569.7" y="30" width="6.380000000000001" height="12" fill="#d5f256ff" /><rect x="576.08" y="30" width="5.220000000000001" height="12" fill="#332469ff" /><rect x="581.3000000000001" y="30" width="4.06" height="12" fill="#f26856ff" /><rect x="585.36" y="30" width="4.64" height="12" fill="#4F8EF7" /><rect x="10" y="52" width="12" height="12" fill="#4F8EF7" /><text x="30" y="63" font-family="monospace" font-size="12" fill="#fff">Java 52.5%</text><rect x="300" y="52" width="12" height="12" fill="#F7B32F" /><text x="320" y="63" font-family="monospace" font-size="12" fill="#fff">JavaScript 13.5%</text><rect x="10" y="77" width="12" height="12" fill="#F75F4F" /><text x="30" y="88" font-family="monospace" font-size="12" fill="#fff">TypeScript 11.3%</text><rect x="300" y="77" width="12" height="12" fill="#6FCF97" /><text x="320" y="88" font-family="monospace" font-size="12" fill="#fff">SQL 5.4%</text><rect x="10" y="102" width="12" height="12" fill="#9B51E0" /><text x="30" y="113" font-family="monospace" font-size="12" fill="#fff">Python 4.9%</text><rect x="300" y="102" width="12" height="12" fill="#834d1eff" /><text x="320" y="113" font-family="monospace" font-size="12" fill="#fff">CSS 3.8%</text><rect x="10" y="127" width="12" height="12" fill="#1e4a7eff" /><text x="30" y="138" font-family="monospace" font-size="12" fill="#fff">HTML 2.6%</text><rect x="300" y="127" width="12" height="12" fill="#f256d0ff" /><text x="320" y="138" font-family="monospace" font-size="12" fill="#fff">Kotlin 2.5%</text><rect x="10" y="152" width="12" height="12" fill="#d5f256ff" /><text x="30" y="163" font-family="monospace" font-size="12" fill="#fff">Jupyter Notebook 1.1%</text><rect x="300" y="152" width="12" height="12" fill="#332469ff" /><text x="320" y="163" font-family="monospace" font-size="12" fill="#fff">C++ 0.9%</text><rect x="10" y="177" width="12" height="12" fill="#f26856ff" /><text x="30" y="188" font-family="monospace" font-size="12" fill="#fff">Shell 0.7%</text><rect x="300" y="177" width="12" height="12" fill="#4F8EF7" /><text x="320" y="188" font-family="monospace" font-size="12" fill="#fff">Other 0.8%</text></svg>