<svg xmlns="http://www.w3.org/2000/svg" width="600" height="212"><rect x="0" y="0" width="600" height="212" fill="#000" /><text x="300" y="20" font-family="monospace" font-size="16" fill="#fff" text-anchor="middle">Top Languages</text><rect x="10" y="30" width="296.96" height="12" fill="#4F8EF7" /><rect x="306.96" y="30" width="83.52000000000001" height="12" fill="#F7B32F" /><rect x="390.48" y="30" width="69.6" height="12" fill="#F75F4F" /><rect x="460.08000000000004" y="30" width="30.160000000000004" height="12" fill="#6FCF97" /><rect x="490.24000000000007" y="30" width="29" height="12" fill="#9B51E0" /><rect x="519.24" y="30" width="18.56" height="12" fill="#834d1eff" /><rect x="537.8" y="30" width="15.080000000000002" height="12" fill="#1e4a7eff" /><rect x="552.88" y="30" width="15.080000000000002" height="12" fill="#f256d0ff" /><rect x="567.96" y="30" width="6.96" height="12" fill="#d5f256ff" /><rect x="574.9200000000001" y="30" width="5.8" height="12" fill="#332469ff" /><rect x="580.72" y="30" width="9.28" height="12" fill="#f26856ff" /><rect x="10" y="52" width="12" height="12" fill="#4F8EF7" /><text x="30" y="63" font-family="monospace" font-size="12" fill="#fff">Java 51.2%</text><rect x="300" y="52" width="12" height="12" fill="#F7B32F" /><text x="320" y="63" font-family="monospace" font-size="12" fill="#fff">JavaScript 14.4%</text><rect x="10" y="77" width="12" height="12" fill="#F75F4F" /><text x="30" y="88" font-family="monospace" font-size="12" fill="#fff">TypeScript 12%</text><rect x="300" y="77" width="12" height="12" fill="#6FCF97" /><text x="320" y="88" font-family="monospace" font-size="12" fill="#fff">Python 5.2%</text><rect x="10" y="102" width="12" height="12" fill="#9B51E0" /><text x="30" y="113" font-family="monospace" font-size="12" fill="#fff">SQL 5%</text><rect x="300" y="102" width="12" height="12" fill="#834d1eff" /><text x="320" y="113" font-family="monospace" font-size="12" fill="#fff">CSS 3.2%</text><rect x="10" y="127" width="12" height="12" fill="#1e4a7eff" /><text x="30" y="138" font-family="monospace" font-size="12" fill="#fff">Kotlin 2.6%</text><rect x="300" y="127" width="12" height="12" fill="#f256d0ff" /><text x="320" y="138" font-family="monospace" font-size="12" fill="#fff">HTML 2.6%</text><rect x="10" y="152" width="12" height="12" fill="#d5f256ff" /><text x="30" y="163" font-family="monospace" font-size="12" fill="#fff">Jupyter Notebook 1.2%</text><rect x="300" y="152" width="12" height="12" fill="#332469ff" /><text x="320" y="163" font-family="monospace" font-size="12" fill="#fff">C++ 1%</text><rect x="10" y="177" width="12" height="12" fill="#f26856ff" /><text x="30" y="188" font-family="monospace" font-size="12" fill="#fff">Other 1.6%</text></svg>