<svg xmlns="http://www.w3.org/2000/svg" width="600" height="212"><rect x="0" y="0" width="600" height="212" fill="#000" /><text x="300" y="20" font-family="monospace" font-size="16" fill="#fff" text-anchor="middle">Top Languages</text><rect x="10" y="30" width="293.48" height="12" fill="#4F8EF7" /><rect x="303.48" y="30" width="82.36" height="12" fill="#F7B32F" /><rect x="385.84000000000003" y="30" width="69.02000000000001" height="12" fill="#F75F4F" /><rect x="454.86" y="30" width="29.58" height="12" fill="#6FCF97" /><rect x="484.44" y="30" width="29.58" height="12" fill="#9B51E0" /><rect x="514.02" y="30" width="23.2" height="12" fill="#834d1eff" /><rect x="537.22" y="30" width="16.24" height="12" fill="#1e4a7eff" /><rect x="553.46" y="30" width="15.080000000000002" height="12" fill="#f256d0ff" /><rect x="568.5400000000001" y="30" width="6.96" height="12" fill="#d5f256ff" /><rect x="575.5000000000001" y="30" width="5.8" height="12" fill="#332469ff" /><rect x="581.3000000000001" y="30" width="4.06" height="12" fill="#f26856ff" /><rect x="585.36" y="30" width="4.64" height="12" fill="#4F8EF7" /><rect x="10" y="52" width="12" height="12" fill="#4F8EF7" /><text x="30" y="63" font-family="monospace" font-size="12" fill="#fff">Java 50.6%</text><rect x="300" y="52" width="12" height="12" fill="#F7B32F" /><text x="320" y="63" font-family="monospace" font-size="12" fill="#fff">JavaScript 14.2%</text><rect x="10" y="77" width="12" height="12" fill="#F75F4F" /><text x="30" y="88" font-family="monospace" font-size="12" fill="#fff">TypeScript 11.9%</text><rect x="300" y="77" width="12" height="12" fill="#6FCF97" /><text x="320" y="88" font-family="monospace" font-size="12" fill="#fff">Python 5.1%</text><rect x="10" y="102" width="12" height="12" fill="#9B51E0" /><text x="30" y="113" font-family="monospace" font-size="12" fill="#fff">SQL 5.1%</text><rect x="300" y="102" width="12" height="12" fill="#834d1eff" /><text x="320" y="113" font-family="monospace" font-size="12" fill="#fff">CSS 4%</text><rect x="10" y="127" width="12" height="12" fill="#1e4a7eff" /><text x="30" y="138" font-family="monospace" font-size="12" fill="#fff">HTML 2.8%</text><rect x="300" y="127" width="12" height="12" fill="#f256d0ff" /><text x="320" y="138" font-family="monospace" font-size="12" fill="#fff">Kotlin 2.6%</text><rect x="10" y="152" width="12" height="12" fill="#d5f256ff" /><text x="30" y="163" font-family="monospace" font-size="12" fill="#fff">Jupyter Notebook 1.2%</text><rect x="300" y="152" width="12" height="12" fill="#332469ff" /><text x="320" y="163" font-family="monospace" font-size="12" fill="#fff">C++ 1%</text><rect x="10" y="177" width="12" height="12" fill="#f26856ff" /><text x="30" y="188" font-family="monospace" font-size="12" fill="#fff">Shell 0.7%</text><rect x="300" y="177" width="12" height="12" fill="#4F8EF7" /><text x="320" y="188" font-family="monospace" font-size="12" fill="#fff">Other 0.8%</text></svg>