<svg xmlns="http://www.w3.org/2000/svg" width="600" height="212"><rect x="0" y="0" width="600" height="212" fill="#000" /><text x="300" y="20" font-family="monospace" font-size="16" fill="#fff" text-anchor="middle">Top Languages</text><rect x="10" y="30" width="311.46000000000004" height="12" fill="#4F8EF7" /><rect x="321.46000000000004" y="30" width="75.4" height="12" fill="#F7B32F" /><rect x="396.86" y="30" width="63.22" height="12" fill="#F75F4F" /><rect x="460.08000000000004" y="30" width="31.9" height="12" fill="#6FCF97" /><rect x="491.98" y="30" width="27.26" height="12" fill="#9B51E0" /><rect x="519.24" y="30" width="21.460000000000004" height="12" fill="#834d1eff" /><rect x="540.7" y="30" width="14.5" height="12" fill="#1e4a7eff" /><rect x="555.2" y="30" width="13.92" height="12" fill="#f256d0ff" /><rect x="569.12" y="30" width="6.380000000000001" height="12" fill="#d5f256ff" /><rect x="575.5" y="30" width="5.220000000000001" height="12" fill="#332469ff" /><rect x="580.72" y="30" width="4.06" height="12" fill="#f26856ff" /><rect x="584.78" y="30" width="5.220000000000001" height="12" fill="#4F8EF7" /><rect x="10" y="52" width="12" height="12" fill="#4F8EF7" /><text x="30" y="63" font-family="monospace" font-size="12" fill="#fff">Java 53.7%</text><rect x="300" y="52" width="12" height="12" fill="#F7B32F" /><text x="320" y="63" font-family="monospace" font-size="12" fill="#fff">JavaScript 13%</text><rect x="10" y="77" width="12" height="12" fill="#F75F4F" /><text x="30" y="88" font-family="monospace" font-size="12" fill="#fff">TypeScript 10.9%</text><rect x="300" y="77" width="12" height="12" fill="#6FCF97" /><text x="320" y="88" font-family="monospace" font-size="12" fill="#fff">SQL 5.5%</text><rect x="10" y="102" width="12" height="12" fill="#9B51E0" /><text x="30" y="113" font-family="monospace" font-size="12" fill="#fff">Python 4.7%</text><rect x="300" y="102" width="12" height="12" fill="#834d1eff" /><text x="320" y="113" font-family="monospace" font-size="12" fill="#fff">CSS 3.7%</text><rect x="10" y="127" width="12" height="12" fill="#1e4a7eff" /><text x="30" y="138" font-family="monospace" font-size="12" fill="#fff">HTML 2.5%</text><rect x="300" y="127" width="12" height="12" fill="#f256d0ff" /><text x="320" y="138" font-family="monospace" font-size="12" fill="#fff">Kotlin 2.4%</text><rect x="10" y="152" width="12" height="12" fill="#d5f256ff" /><text x="30" y="163" font-family="monospace" font-size="12" fill="#fff">Jupyter Notebook 1.1%</text><rect x="300" y="152" width="12" height="12" fill="#332469ff" /><text x="320" y="163" font-family="monospace" font-size="12" fill="#fff">C++ 0.9%</text><rect x="10" y="177" width="12" height="12" fill="#f26856ff" /><text x="30" y="188" font-family="monospace" font-size="12" fill="#fff">Shell 0.7%</text><rect x="300" y="177" width="12" height="12" fill="#4F8EF7" /><text x="320" y="188" font-family="monospace" font-size="12" fill="#fff">Other 0.9%</text></svg>