<svg xmlns="http://www.w3.org/2000/svg" width="600" height="200"><rect x="0" y="0" width="600" height="200" fill="#000" /><text x="300" y="20" font-family="monospace" font-size="16" fill="#fff" text-anchor="middle">Top Languages</text><rect x="10" y="30" width="297.54" height="40" fill="#4F8EF7" /><rect x="307.54" y="30" width="82.94000000000001" height="40" fill="#F7B32F" /><rect x="390.48" y="30" width="69.6" height="40" fill="#F75F4F" /><rect x="460.08000000000004" y="30" width="30.160000000000004" height="40" fill="#6FCF97" /><rect x="490.24000000000007" y="30" width="29" height="40" fill="#9B51E0" /><rect x="519.24" y="30" width="70.76" height="40" fill="#F2994A" /><rect x="10" y="80" width="15" height="15" fill="#4F8EF7" /><text x="30" y="92" font-family="sans-serif" font-size="12" fill="#fff">Java 51.3%</text><rect x="10" y="100" width="15" height="15" fill="#F7B32F" /><text x="30" y="112" font-family="sans-serif" font-size="12" fill="#fff">JavaScript 14.3%</text><rect x="10" y="120" width="15" height="15" fill="#F75F4F" /><text x="30" y="132" font-family="sans-serif" font-size="12" fill="#fff">TypeScript 12%</text><rect x="10" y="140" width="15" height="15" fill="#6FCF97" /><text x="30" y="152" font-family="sans-serif" font-size="12" fill="#fff">Python 5.2%</text><rect x="10" y="160" width="15" height="15" fill="#9B51E0" /><text x="30" y="172" font-family="sans-serif" font-size="12" fill="#fff">SQL 5%</text><rect x="10" y="180" width="15" height="15" fill="#F2994A" /><text x="30" y="192" font-family="sans-serif" font-size="12" fill="#fff">Other 12.2%</text></svg>