<svg xmlns="http://www.w3.org/2000/svg" width="600" height="212"><rect x="0" y="0" width="600" height="212" fill="#000" /><text x="300" y="20" font-family="monospace" font-size="16" fill="#fff" text-anchor="middle">Top Languages</text><rect x="10" y="30" width="324.8" height="12" fill="#4F8EF7" /><rect x="334.8" y="30" width="78.88000000000001" height="12" fill="#F7B32F" /><rect x="413.68" y="30" width="59.74" height="12" fill="#F75F4F" /><rect x="473.42" y="30" width="30.74" height="12" fill="#6FCF97" /><rect x="504.16" y="30" width="24.939999999999998" height="12" fill="#9B51E0" /><rect x="529.1" y="30" width="17.4" height="12" fill="#834d1eff" /><rect x="546.5" y="30" width="13.92" height="12" fill="#1e4a7eff" /><rect x="560.42" y="30" width="11.6" height="12" fill="#f256d0ff" /><rect x="572.02" y="30" width="5.8" height="12" fill="#d5f256ff" /><rect x="577.8199999999999" y="30" width="4.64" height="12" fill="#332469ff" /><rect x="582.4599999999999" y="30" width="3.48" height="12" fill="#f26856ff" /><rect x="585.9399999999999" y="30" width="4.64" height="12" fill="#4F8EF7" /><rect x="10" y="52" width="12" height="12" fill="#4F8EF7" /><text x="30" y="63" font-family="monospace" font-size="12" fill="#fff">Java 56%</text><rect x="10" y="77" width="12" height="12" fill="#F7B32F" /><text x="30" y="88" font-family="monospace" font-size="12" fill="#fff">TypeScript 13.6%</text><rect x="10" y="102" width="12" height="12" fill="#F75F4F" /><text x="30" y="113" font-family="monospace" font-size="12" fill="#fff">JavaScript 10.3%</text><rect x="10" y="127" width="12" height="12" fill="#6FCF97" /><text x="30" y="138" font-family="monospace" font-size="12" fill="#fff">SQL 5.3%</text><rect x="10" y="152" width="12" height="12" fill="#9B51E0" /><text x="30" y="163" font-family="monospace" font-size="12" fill="#fff">Python 4.3%</text><rect x="10" y="177" width="12" height="12" fill="#834d1eff" /><text x="30" y="188" font-family="monospace" font-size="12" fill="#fff">CSS 3%</text><rect x="300" y="52" width="12" height="12" fill="#1e4a7eff" /><text x="320" y="63" font-family="monospace" font-size="12" fill="#fff">Kotlin 2.4%</text><rect x="300" y="77" width="12" height="12" fill="#f256d0ff" /><text x="320" y="88" font-family="monospace" font-size="12" fill="#fff">HTML 2%</text><rect x="300" y="102" width="12" height="12" fill="#d5f256ff" /><text x="320" y="113" font-family="monospace" font-size="12" fill="#fff">Jupyter Notebook 1%</text><rect x="300" y="127" width="12" height="12" fill="#332469ff" /><text x="320" y="138" font-family="monospace" font-size="12" fill="#fff">C++ 0.8%</text><rect x="300" y="152" width="12" height="12" fill="#f26856ff" /><text x="320" y="163" font-family="monospace" font-size="12" fill="#fff">Shell 0.6%</text><rect x="300" y="177" width="12" height="12" fill="#4F8EF7" /><text x="320" y="188" font-family="monospace" font-size="12" fill="#fff">Other 0.8%</text></svg>