<svg xmlns="http://www.w3.org/2000/svg" width="600" height="212"><rect x="0" y="0" width="600" height="212" fill="#000" /><text x="300" y="20" font-family="monospace" font-size="16" fill="#fff" text-anchor="middle">Top Languages</text><rect x="10" y="30" width="326.53999999999996" height="12" fill="#4F8EF7" /><rect x="336.53999999999996" y="30" width="72.5" height="12" fill="#F7B32F" /><rect x="409.03999999999996" y="30" width="61.48" height="12" fill="#F75F4F" /><rect x="470.52" y="30" width="31.320000000000004" height="12" fill="#6FCF97" /><rect x="501.84" y="30" width="26.099999999999998" height="12" fill="#9B51E0" /><rect x="527.9399999999999" y="30" width="17.98" height="12" fill="#834d1eff" /><rect x="545.92" y="30" width="12.760000000000002" height="12" fill="#1e4a7eff" /><rect x="558.68" y="30" width="11.6" height="12" fill="#f256d0ff" /><rect x="570.28" y="30" width="5.8" height="12" fill="#d5f256ff" /><rect x="576.0799999999999" y="30" width="5.220000000000001" height="12" fill="#332469ff" /><rect x="581.3" y="30" width="3.48" height="12" fill="#f26856ff" /><rect x="584.78" y="30" width="4.64" height="12" fill="#4F8EF7" /><rect x="10" y="52" width="12" height="12" fill="#4F8EF7" /><text x="30" y="63" font-family="monospace" font-size="12" fill="#fff">Java 56.3%</text><rect x="10" y="77" width="12" height="12" fill="#F7B32F" /><text x="30" y="88" font-family="monospace" font-size="12" fill="#fff">TypeScript 12.5%</text><rect x="10" y="102" width="12" height="12" fill="#F75F4F" /><text x="30" y="113" font-family="monospace" font-size="12" fill="#fff">JavaScript 10.6%</text><rect x="10" y="127" width="12" height="12" fill="#6FCF97" /><text x="30" y="138" font-family="monospace" font-size="12" fill="#fff">SQL 5.4%</text><rect x="10" y="152" width="12" height="12" fill="#9B51E0" /><text x="30" y="163" font-family="monospace" font-size="12" fill="#fff">Python 4.5%</text><rect x="10" y="177" width="12" height="12" fill="#834d1eff" /><text x="30" y="188" font-family="monospace" font-size="12" fill="#fff">CSS 3.1%</text><rect x="300" y="52" width="12" height="12" fill="#1e4a7eff" /><text x="320" y="63" font-family="monospace" font-size="12" fill="#fff">Kotlin 2.2%</text><rect x="300" y="77" width="12" height="12" fill="#f256d0ff" /><text x="320" y="88" font-family="monospace" font-size="12" fill="#fff">HTML 2%</text><rect x="300" y="102" width="12" height="12" fill="#d5f256ff" /><text x="320" y="113" font-family="monospace" font-size="12" fill="#fff">Jupyter Notebook 1%</text><rect x="300" y="127" width="12" height="12" fill="#332469ff" /><text x="320" y="138" font-family="monospace" font-size="12" fill="#fff">C++ 0.9%</text><rect x="300" y="152" width="12" height="12" fill="#f26856ff" /><text x="320" y="163" font-family="monospace" font-size="12" fill="#fff">Shell 0.6%</text><rect x="300" y="177" width="12" height="12" fill="#4F8EF7" /><text x="320" y="188" font-family="monospace" font-size="12" fill="#fff">Other 0.8%</text></svg>