<svg xmlns="http://www.w3.org/2000/svg" width="600" height="300"><rect x="0" y="0" width="600" height="300" fill="#000" /><text x="300" y="20" font-family="monospace" font-size="16" fill="#fff" text-anchor="middle">Top Languages</text><rect x="10" y="30" width="297.54" height="40" fill="#4F8EF7" /><rect x="307.54" y="30" width="82.94000000000001" height="40" fill="#F7B32F" /><rect x="390.48" y="30" width="69.6" height="40" fill="#F75F4F" /><rect x="460.08000000000004" y="30" width="30.160000000000004" height="40" fill="#6FCF97" /><rect x="490.24000000000007" y="30" width="29" height="40" fill="#9B51E0" /><rect x="519.24" y="30" width="18.56" height="40" fill="#F2994A" /><rect x="537.8" y="30" width="15.080000000000002" height="40" fill="#56CCF2" /><rect x="552.88" y="30" width="15.080000000000002" height="40" fill="#4F8EF7" /><rect x="567.96" y="30" width="6.96" height="40" fill="#F7B32F" /><rect x="574.9200000000001" y="30" width="5.8" height="40" fill="#F75F4F" /><rect x="580.72" y="30" width="9.28" height="40" fill="#6FCF97" /><rect x="10" y="80" width="15" height="15" fill="#4F8EF7" /><text x="30" y="92" font-family="sans-serif" font-size="12" fill="#fff">Java 51.3%</text><rect x="10" y="100" width="15" height="15" fill="#F7B32F" /><text x="30" y="112" font-family="sans-serif" font-size="12" fill="#fff">JavaScript 14.3%</text><rect x="10" y="120" width="15" height="15" fill="#F75F4F" /><text x="30" y="132" font-family="sans-serif" font-size="12" fill="#fff">TypeScript 12%</text><rect x="10" y="140" width="15" height="15" fill="#6FCF97" /><text x="30" y="152" font-family="sans-serif" font-size="12" fill="#fff">Python 5.2%</text><rect x="10" y="160" width="15" height="15" fill="#9B51E0" /><text x="30" y="172" font-family="sans-serif" font-size="12" fill="#fff">SQL 5%</text><rect x="10" y="180" width="15" height="15" fill="#F2994A" /><text x="30" y="192" font-family="sans-serif" font-size="12" fill="#fff">CSS 3.2%</text><rect x="10" y="200" width="15" height="15" fill="#56CCF2" /><text x="30" y="212" font-family="sans-serif" font-size="12" fill="#fff">Kotlin 2.6%</text><rect x="10" y="220" width="15" height="15" fill="#4F8EF7" /><text x="30" y="232" font-family="sans-serif" font-size="12" fill="#fff">HTML 2.6%</text><rect x="10" y="240" width="15" height="15" fill="#F7B32F" /><text x="30" y="252" font-family="sans-serif" font-size="12" fill="#fff">Jupyter Notebook 1.2%</text><rect x="10" y="260" width="15" height="15" fill="#F75F4F" /><text x="30" y="272" font-family="sans-serif" font-size="12" fill="#fff">C++ 1%</text><rect x="10" y="280" width="15" height="15" fill="#6FCF97" /><text x="30" y="292" font-family="sans-serif" font-size="12" fill="#fff">Other 1.6%</text></svg>