<svg xmlns="http://www.w3.org/2000/svg" width="600" height="212"><rect x="0" y="0" width="600" height="212" fill="#000" /><text x="300" y="20" font-family="monospace" font-size="16" fill="#fff" text-anchor="middle">Top Languages</text><rect x="10" y="30" width="314.93999999999994" height="12" fill="#4F8EF7" /><rect x="324.93999999999994" y="30" width="71.34" height="12" fill="#F7B32F" /><rect x="396.28" y="30" width="66.12" height="12" fill="#F75F4F" /><rect x="462.4" y="30" width="31.320000000000004" height="12" fill="#6FCF97" /><rect x="493.71999999999997" y="30" width="26.099999999999998" height="12" fill="#9B51E0" /><rect x="519.8199999999999" y="30" width="23.779999999999998" height="12" fill="#834d1eff" /><rect x="543.5999999999999" y="30" width="13.92" height="12" fill="#1e4a7eff" /><rect x="557.5199999999999" y="30" width="13.34" height="12" fill="#f256d0ff" /><rect x="570.8599999999999" y="30" width="5.8" height="12" fill="#d5f256ff" /><rect x="576.6599999999999" y="30" width="5.220000000000001" height="12" fill="#332469ff" /><rect x="581.8799999999999" y="30" width="3.48" height="12" fill="#f26856ff" /><rect x="585.3599999999999" y="30" width="4.64" height="12" fill="#4F8EF7" /><rect x="10" y="52" width="12" height="12" fill="#4F8EF7" /><text x="30" y="63" font-family="monospace" font-size="12" fill="#fff">Java 54.3%</text><rect x="10" y="77" width="12" height="12" fill="#F7B32F" /><text x="30" y="88" font-family="monospace" font-size="12" fill="#fff">JavaScript 12.3%</text><rect x="10" y="102" width="12" height="12" fill="#F75F4F" /><text x="30" y="113" font-family="monospace" font-size="12" fill="#fff">TypeScript 11.4%</text><rect x="10" y="127" width="12" height="12" fill="#6FCF97" /><text x="30" y="138" font-family="monospace" font-size="12" fill="#fff">SQL 5.4%</text><rect x="10" y="152" width="12" height="12" fill="#9B51E0" /><text x="30" y="163" font-family="monospace" font-size="12" fill="#fff">Python 4.5%</text><rect x="10" y="177" width="12" height="12" fill="#834d1eff" /><text x="30" y="188" font-family="monospace" font-size="12" fill="#fff">CSS 4.1%</text><rect x="300" y="52" width="12" height="12" fill="#1e4a7eff" /><text x="320" y="63" font-family="monospace" font-size="12" fill="#fff">HTML 2.4%</text><rect x="300" y="77" width="12" height="12" fill="#f256d0ff" /><text x="320" y="88" font-family="monospace" font-size="12" fill="#fff">Kotlin 2.3%</text><rect x="300" y="102" width="12" height="12" fill="#d5f256ff" /><text x="320" y="113" font-family="monospace" font-size="12" fill="#fff">Jupyter Notebook 1%</text><rect x="300" y="127" width="12" height="12" fill="#332469ff" /><text x="320" y="138" font-family="monospace" font-size="12" fill="#fff">C++ 0.9%</text><rect x="300" y="152" width="12" height="12" fill="#f26856ff" /><text x="320" y="163" font-family="monospace" font-size="12" fill="#fff">Shell 0.6%</text><rect x="300" y="177" width="12" height="12" fill="#4F8EF7" /><text x="320" y="188" font-family="monospace" font-size="12" fill="#fff">Other 0.8%</text></svg>